
<svg width="34px" height="28px" viewBox="0 0 34 28" version="1.1" xmlns="http://www.w3.org/2000/svg" xmlns:xlink="http://www.w3.org/1999/xlink">
    <!-- Generator: Sketch 41.2 (35397) - http://www.bohemiancoding.com/sketch -->
    <desc>Created with Sketch.</desc>
    <defs></defs>
    <path d="M30.6265085,0.0605084746 L3.36369492,0.0605084746 C1.50925424,0.0605084746 0,1.57264407 0,3.43111864 L0,23.6467119 C0,25.5057627 1.50925424,27.0155932 3.36369492,27.0155932 L30.6282373,27.0155932 C32.482678,27.0155932 33.9913559,25.5057627 33.9913559,23.6467119 L33.9913559,3.43111864 C33.9896271,1.57264407 32.4803729,0.0605084746 30.6265085,0.0605084746 Z M32.5725763,23.6449831 C32.5725763,24.7197288 31.6977966,25.5968136 30.6253559,25.5968136 L3.36369492,25.5968136 C2.29067797,25.5968136 1.41647458,24.7203051 1.41647458,23.6449831 L1.41647458,3.43111864 C1.41647458,2.35637288 2.29125424,1.47986441 3.36369492,1.47986441 L30.6282373,1.47986441 C31.7001017,1.47986441 32.5754576,2.35637288 32.5754576,3.43111864 L32.5725763,23.6449831 L32.5725763,23.6449831 Z M21.9150169,13.2882373 L28.8902034,6.30210169 C29.1668136,6.0260678 29.1668136,5.576 28.8902034,5.29938983 C28.6141695,5.02335593 28.1658305,5.02335593 27.8909492,5.29938983 L16.9948136,16.2110847 L6.31305085,5.51030508 C6.03701695,5.23427119 5.58867797,5.23427119 5.3120678,5.51030508 C5.0360339,5.78749153 5.0360339,6.23640678 5.3120678,6.51359322 L12.2578644,13.4686102 L5.42501695,20.3135593 C5.14898305,20.5895932 5.14898305,21.039661 5.42501695,21.3139661 C5.56332203,21.4522712 5.74427119,21.522 5.92579661,21.522 C6.10732203,21.522 6.28827119,21.4522712 6.42657627,21.3139661 L13.2576949,14.4718983 L16.4946102,17.7145763 C16.6329153,17.8523051 16.8138644,17.9220339 16.9953898,17.9220339 C17.1769153,17.9220339 17.3578644,17.8523051 17.4961695,17.7145763 L20.9146102,14.2915254 L27.9261017,21.3139661 C28.0644068,21.4522712 28.2465085,21.522 28.4268814,21.522 C28.6072542,21.522 28.7887797,21.4522712 28.927661,21.3139661 C29.2036949,21.0379322 29.2036949,20.5878644 28.927661,20.3135593 L21.9150169,13.2882373 Z" id="Shape" stroke="none" fill="#FFFFFF" fill-rule="evenodd"></path>
</svg>