
<svg width="34px" height="34px" viewBox="0 0 34 34" version="1.1" xmlns="http://www.w3.org/2000/svg" xmlns:xlink="http://www.w3.org/1999/xlink">
    <!-- Generator: Sketch 41.2 (35397) - http://www.bohemiancoding.com/sketch -->
    <desc>Created with Sketch.</desc>
    <defs></defs>
    <path d="M17.1596271,9.75627119 C12.8762034,9.75627119 9.39091525,13.247322 9.39091525,17.5365085 C9.39091525,21.8268475 12.8767797,25.3184746 17.1596271,25.3184746 C21.4424746,25.3184746 24.9277627,21.8268475 24.9277627,17.5365085 C24.928339,13.247322 21.4430508,9.75627119 17.1596271,9.75627119 Z M17.1596271,23.9411864 C13.634,23.9411864 10.765322,21.0678983 10.765322,17.5365085 C10.765322,14.0062712 13.634,11.1329831 17.1596271,11.1329831 C20.6852542,11.1329831 23.5533559,14.0062712 23.5533559,17.5365085 C23.5533559,21.0678983 20.6852542,23.9411864 17.1596271,23.9411864 Z M33.7706441,16.6294576 C33.638678,16.5003729 33.462339,16.4271864 33.2773559,16.4271864 L33.2675593,16.4271864 L31.7289153,16.4462034 C31.6401695,14.6966441 31.2431186,12.994339 30.5435254,11.368678 L31.947322,10.6840678 C32.1150169,10.6022373 32.2423729,10.4564407 32.3028814,10.2812542 C32.3633898,10.1037627 32.3524407,9.90955932 32.2706102,9.74186441 C31.1612881,7.46444068 29.524678,5.42674576 27.5376949,3.84718644 C27.391322,3.73077966 27.2034576,3.67833898 27.0207797,3.69850847 C26.8363729,3.72098305 26.6675254,3.81491525 26.5516949,3.96071186 L25.5847119,5.18240678 C24.1722712,4.16816949 22.5771525,3.40518644 20.9088475,2.94359322 L21.2476949,1.42223729 C21.3318305,1.04305085 21.0938305,0.666745763 20.7146441,0.581457627 C18.2597288,0.0282372881 15.6157966,0.0386101695 13.1631864,0.605084746 C12.9822373,0.646 12.824339,0.758949153 12.7246441,0.918 C12.626678,1.07589831 12.5944068,1.26664407 12.6364746,1.44874576 L12.9862712,2.97010169 C11.3139322,3.4420678 9.72342373,4.21369492 8.32250847,5.23254237 L7.34918644,4.0200678 C7.10542373,3.71694915 6.66169492,3.66738983 6.36145763,3.91230508 C4.38484746,5.50050847 2.76149153,7.54915254 1.66484746,9.83637288 C1.58416949,10.0052203 1.57379661,10.1976949 1.63545763,10.3740339 C1.6959661,10.5515254 1.82677966,10.6955932 1.99389831,10.7756949 L3.40172881,11.451661 C2.7159661,13.0698305 2.32986441,14.762339 2.2480339,16.5147797 L0.701322034,16.5188136 C0.515186441,16.5188136 0.336542373,16.5937288 0.205152542,16.7251186 C0.0737627119,16.8582373 0,17.0368814 0,17.2241695 C0.00576271186,19.8104746 0.575694915,22.2930508 1.69423729,24.6044746 C1.86423729,24.9536949 2.28318644,25.0994915 2.63355932,24.9289153 L4.03735593,24.2471864 C4.8700678,25.7743051 5.97189831,27.1579322 7.27081356,28.300678 L6.30267797,29.5171864 C6.18627119,29.6641356 6.13210169,29.8496949 6.15284746,30.0352542 C6.17359322,30.2208136 6.26752542,30.3913898 6.41447458,30.5054915 C8.40145763,32.0925424 10.7584068,33.2272203 13.2300339,33.7856271 C13.281322,33.7977288 13.3337627,33.802339 13.3850508,33.802339 C13.5170169,33.802339 13.6461017,33.7648814 13.7596271,33.694 C13.9169492,33.5943051 14.029322,33.4352542 14.0708136,33.2531525 L14.4125424,31.734678 C16.156339,32.0464407 17.8523051,32.0464407 19.5932203,31.728339 L19.9412881,33.2473898 C20.026,33.6265763 20.4028814,33.8697627 20.7820678,33.7769831 C23.2502373,33.2128136 25.6048814,32.0758305 27.5901356,30.485322 C27.892678,30.2421356 27.9422373,29.7995593 27.7002034,29.4952881 L26.7286102,28.2799322 C28.0246441,27.1343051 29.1241695,25.7477966 29.9545763,24.2177966 L31.3601017,24.8983729 C31.5289492,24.9790508 31.7196949,24.9894237 31.8994915,24.9289153 C32.0752542,24.8672542 32.2187458,24.7375932 32.2994237,24.5698983 C33.4133559,22.2561695 33.9769492,19.7730169 33.9769492,17.1279322 C33.978678,16.9435254 33.904339,16.7625763 33.7706441,16.6294576 Z M31.3255254,23.3205424 L29.947661,22.6543729 C29.5967119,22.4855254 29.178339,22.6342034 29.008339,22.9822712 C28.1398983,24.786 26.8611525,26.3961017 25.3150169,27.635661 C25.0124746,27.8782712 24.9617627,28.3208475 25.2037966,28.6251186 L26.1546441,29.8145424 C24.6465424,30.9111864 22.9390508,31.7392881 21.1497288,32.2343051 L20.8091525,30.7463729 C20.7682373,30.5642712 20.6558644,30.4057966 20.4985424,30.3072542 C20.3423729,30.2058305 20.1458644,30.1735593 19.9683729,30.2173559 C17.9681356,30.6754915 16.0318644,30.6754915 14.0327797,30.2231186 C13.8489492,30.1833559 13.6593559,30.2156271 13.5026102,30.3141695 C13.3452881,30.4144407 13.2329153,30.5729153 13.1914237,30.7555932 L12.8571864,32.2435254 C11.0661356,31.7502373 9.35633898,30.927322 7.84766102,29.8318305 L8.79562712,28.6412542 C8.91145763,28.4943051 8.96562712,28.309322 8.94488136,28.1237627 C8.92413559,27.9382034 8.83020339,27.7676271 8.68325424,27.6535254 C7.1319322,26.4151186 5.85088136,24.8084746 4.97955932,23.0076271 C4.89830508,22.8382034 4.75423729,22.7096949 4.57905085,22.6486102 C4.40328814,22.5869492 4.20850847,22.5990508 4.04081356,22.6814576 L2.66640678,23.3482034 C1.92474576,21.6286102 1.50867797,19.8087458 1.42166102,17.9249153 L2.93610169,17.9220339 C3.32335593,17.9220339 3.63569492,17.5768475 3.63569492,17.1895932 C3.63569492,15.1933898 4.08,13.2525085 4.95650847,11.4205424 C5.12420339,11.0701695 4.97725424,10.6489153 4.6280339,10.4812203 L3.24844068,9.81966102 C4.12955932,8.18016949 5.3080339,6.6939661 6.7020339,5.46362712 L7.65461017,6.65132203 C7.89664407,6.95444068 8.33922034,6.9999661 8.64233898,6.75966102 C10.1913559,5.51261017 12.0377288,4.61766102 13.9826441,4.16932203 C14.1635932,4.12783051 14.3214915,4.01488136 14.4211864,3.85583051 C14.5191525,3.69850847 14.5514237,3.50718644 14.5093559,3.32508475 L14.1658983,1.83772881 C15.9834576,1.50522034 17.8984068,1.49772881 19.7176949,1.81986441 L19.386339,3.30779661 C19.3022034,3.68755932 19.5402034,4.06328814 19.9188136,4.14915254 C21.8850508,4.59115254 23.6858983,5.45440678 25.2706441,6.71183051 C25.5749153,6.95271186 26.0180678,6.90430508 26.2589492,6.59830508 L27.2051864,5.40311864 C28.6095593,6.6259661 29.7955254,8.10467797 30.6847119,9.73610169 L29.3091525,10.4068814 C28.9610847,10.5774576 28.8164407,10.9981356 28.9852881,11.3479322 C29.8808136,13.1873898 30.3354915,15.1432542 30.3412542,17.163661 C30.3412542,17.3515254 30.4178983,17.5318983 30.5515932,17.6632881 C30.6835593,17.7941017 30.859322,17.8661356 31.0437288,17.8661356 L31.054678,17.8661356 L32.5598983,17.8465424 C32.4838305,19.7465085 32.068339,21.5825085 31.3255254,23.3205424 Z" id="Shape" stroke="none" fill="#FFFFFF" fill-rule="evenodd"></path>
</svg>