<svg width="34px" height="36px" viewBox="29 394 34 36" version="1.1" xmlns="http://www.w3.org/2000/svg" xmlns:xlink="http://www.w3.org/1999/xlink">
    <!-- Generator: Sketch 41.2 (35397) - http://www.bohemiancoding.com/sketch -->
    <desc>Created with Sketch.</desc>
    <defs></defs>
    <g id="bell-outline" stroke="none" stroke-width="1" fill="none" fill-rule="evenodd" transform="translate(29.000000, 394.000000)">
        <g id="_x33_5" fill="#FFFFFF">
            <path d="M16.8116923,25.5464348 C9.93218462,25.5464348 2.62166154,27.3130435 2.62166154,30.585913 C2.62166154,33.8577391 9.93218462,35.6243478 16.8116923,35.6243478 C23.6906769,35.6243478 31.0012,33.8577391 31.0012,30.585913 C31.0012,27.3130435 23.6912,25.5464348 16.8116923,25.5464348 Z M16.8116923,26.9285217 C17.5586462,26.9285217 18.2679385,26.9530435 18.9589231,26.9874783 C18.9458462,27.0401739 18.9270154,27.0892174 18.9270154,27.1455652 C18.9270154,28.5693913 17.7663077,29.7276522 16.3424923,29.7276522 C14.9186769,29.7276522 13.7579692,28.5683478 13.7579692,27.1455652 C13.7579692,27.1095652 13.7438462,27.0782609 13.7375692,27.0443478 C14.7042154,26.9713043 15.7263077,26.9285217 16.8116923,26.9285217 Z M16.8116923,34.2422609 C8.87713846,34.2422609 4.00572308,32.1125217 4.00572308,30.585913 C4.00572308,29.361913 7.14313846,27.7518261 12.4732923,27.1612174 C12.4821846,29.2857391 14.2135692,31.0132174 16.3424923,31.0132174 C18.4766462,31.0132174 20.2127385,29.2784348 20.2127385,27.1466087 C20.2127385,27.1194783 20.2012308,27.0970435 20.1980923,27.0714783 C26.1025846,27.5671304 29.6171385,29.292 29.6171385,30.585913 C29.6181846,32.1125217 24.7457231,34.2422609 16.8116923,34.2422609 Z M33.3812,28.4947826 L29.1636308,23.256 C27.8742462,21.6568696 27.3333846,19.5772174 27.6770462,17.5528696 L27.8010154,16.8203478 C28.2953231,13.908 27.4850769,10.944 25.5768923,8.688 C24.1295385,6.97617391 22.1753231,5.82 20.0254769,5.36034783 L20.0254769,3.18573913 C20.0254769,1.42852174 18.5948615,0 16.7860615,0 C15.028,0 13.5968615,1.42852174 13.5968615,3.18573913 L13.5968615,5.36034783 C11.4470154,5.82 9.49227692,6.97617391 8.04596923,8.688 C6.13883077,10.944 5.32753846,13.908 5.82132308,16.8203478 L5.94581538,17.5528696 C6.28947692,19.5772174 5.74861538,21.6563478 4.45923077,23.256 L0.241661538,28.4947826 C0.0193538462,28.7707826 0.0632923077,29.1761739 0.34,29.3973913 C0.616707692,29.6186087 1.02052308,29.5768696 1.24387692,29.2993043 L5.46196923,24.0605217 C6.97993846,22.173913 7.61966154,19.7238261 7.2148,17.3358261 L7.09030769,16.6038261 C6.66033846,14.0666087 7.36544615,11.4813913 9.02883077,9.51495652 C10.6927385,7.548 13.1224308,6.42052174 15.7006769,6.42052174 L17.9248,6.42052174 C20.5025231,6.42052174 22.9316923,7.548 24.5961231,9.51495652 C26.2595077,11.4813913 26.9640923,14.0666087 26.5341231,16.6038261 L26.4101538,17.3358261 C26.0047692,19.7227826 26.6434462,22.1733913 28.1629846,24.0605217 L32.3805538,29.2993043 C32.5076615,29.4573913 32.6949231,29.5387826 32.8816615,29.5387826 C33.0234154,29.5387826 33.1651692,29.4918261 33.2849538,29.3973913 C33.5595692,29.1761739 33.6035077,28.7713043 33.3812,28.4947826 Z M18.7402769,5.13756522 L14.8836308,5.13756522 L14.8836308,3.18626087 C14.8836308,2.13756522 15.7372923,1.28452174 16.8368,1.28452174 C17.8860923,1.28452174 18.7402769,2.13756522 18.7402769,3.18626087 L18.7402769,5.13756522 Z" id="Shape"></path>
        </g>
    </g>
</svg>