<svg width="34px" height="40px" viewBox="0 0 34 40" version="1.1" xmlns="http://www.w3.org/2000/svg" xmlns:xlink="http://www.w3.org/1999/xlink">
    <!-- Generator: Sketch 41.2 (35397) - http://www.bohemiancoding.com/sketch -->
    <desc>Created with Sketch.</desc>
    <defs></defs>
    <path d="M32.9036393,0 C32.5240656,0 32.218623,0.361311475 32.218623,0.806557377 L32.218623,4.80459016 L27.0840656,7.95934426 C26.3711803,6.87344262 25.257541,6.16983607 24.0045574,6.16983607 C21.8547541,6.16983607 20.1062623,8.23016393 20.1062623,10.7619672 C20.1062623,12.3416393 20.7868197,13.7377049 21.8196393,14.5645902 L20.1151803,19.0859016 C19.8158689,18.9993443 19.5048525,18.9481967 19.1838033,18.9481967 C17.0345574,18.9481967 15.2860656,21.0091803 15.2860656,23.5422951 C15.2860656,23.92 15.329541,24.2865574 15.4031148,24.6386885 L11.5661311,26.6478689 C10.8643934,25.4301639 9.67996721,24.6281967 8.33891803,24.6281967 C6.19078689,24.6281967 4.44285246,26.6885246 4.44285246,29.2209836 C4.44285246,30.7613115 5.09108197,32.1219672 6.08042623,32.9554098 L4.07944262,37.9337705 L0.712885246,37.9337705 C0.33442623,37.9337705 0.0278688525,38.2937705 0.0278688525,38.7403279 C0.0278688525,39.1868852 0.33442623,39.5468852 0.712885246,39.5468852 L31.0202623,39.5468852 C32.4365574,39.5468852 33.587541,38.1901639 33.587541,36.5206557 L33.587541,0.806557377 C33.5880984,0.361311475 33.2820984,0 32.9036393,0 Z M24.004,7.7842623 C24.9716066,7.7842623 25.8037705,8.4347541 26.2284918,9.37770492 C26.2312787,9.38295082 26.2301639,9.38885246 26.2323934,9.39344262 C26.2368525,9.40262295 26.243541,9.40852459 26.2463279,9.41704918 C26.422459,9.82295082 26.5317049,10.2754098 26.5317049,10.7619672 C26.5317049,12.4045902 25.3985574,13.7409836 24.004,13.7409836 C22.6105574,13.7409836 21.4762951,12.4045902 21.4762951,10.7619672 C21.4762951,9.11934426 22.6105574,7.7842623 24.004,7.7842623 Z M19.1838033,20.5619672 C20.5778033,20.5619672 21.7120656,21.8990164 21.7120656,23.5409836 C21.7120656,25.1842623 20.5778033,26.5186885 19.1838033,26.5186885 C17.7898033,26.5186885 16.655541,25.1842623 16.655541,23.5409836 C16.655541,21.8990164 17.7898033,20.5619672 19.1838033,20.5619672 Z M8.33891803,26.242623 C9.73291803,26.242623 10.8671803,27.5796721 10.8671803,29.2216393 C10.8671803,30.864918 9.73291803,32.1993443 8.33891803,32.1993443 C7.95432787,32.1993443 7.59314754,32.0904918 7.26652459,31.9081967 C7.26429508,31.907541 7.26318033,31.904918 7.26095082,31.9036066 C7.25983607,31.9022951 7.25816393,31.9022951 7.25704918,31.9022951 C6.40593443,31.4236066 5.81177049,30.4072131 5.81177049,29.2216393 C5.81232787,27.5796721 6.94547541,26.242623 8.33891803,26.242623 Z M31.0202623,37.9344262 L5.59495082,37.9344262 L7.31780328,33.6491803 C7.64386885,33.7527869 7.98498361,33.8144262 8.33891803,33.8144262 C10.4887213,33.8144262 12.2372131,31.7534426 12.2372131,29.2216393 C12.2372131,28.842623 12.1937377,28.4767213 12.1201639,28.1239344 L15.9571475,26.1160656 C16.6594426,27.332459 17.8433115,28.1344262 19.1838033,28.1344262 C21.3330492,28.1344262 23.081541,26.0734426 23.081541,23.5429508 C23.081541,21.962623 22.4009836,20.5672131 21.3681639,19.7396721 L23.0731803,15.2183607 C23.3719344,15.304918 23.6829508,15.3560656 24.004,15.3560656 C26.1532459,15.3560656 27.9017377,13.2957377 27.9017377,10.762623 C27.9017377,10.2845902 27.8393115,9.82229508 27.7239344,9.38819672 L32.218623,6.62557377 L32.218623,36.5219672 C32.218623,37.3003279 31.6807541,37.9344262 31.0202623,37.9344262 Z" id="Shape" stroke="none" fill="#FFFFFF" fill-rule="evenodd"></path>
</svg>